<mxfile host="app.diagrams.net" modified="2024-01-31T03:33:20.379Z" agent="Mozilla/5.0 (Macintosh; Intel Mac OS X 10_15_7) AppleWebKit/537.36 (KHTML, like Gecko) Chrome/121.0.0.0 Safari/537.36" etag="ck9EqWt127OUGrfisYGG" version="23.0.2" type="device">
  <diagram name="第 1 页" id="OBKLB81-3-XP2VRUzwHS">
    <mxGraphModel dx="1553" dy="905" grid="1" gridSize="10" guides="1" tooltips="1" connect="1" arrows="1" fold="1" page="1" pageScale="1" pageWidth="1100" pageHeight="850" math="0" shadow="0">
      <root>
        <mxCell id="0" />
        <mxCell id="1" parent="0" />
        <mxCell id="FjAKKOvZAL7Q4lh6zARO-22" value="employ" style="shape=rhombus;perimeter=rhombusPerimeter;whiteSpace=wrap;html=1;align=center;fillColor=#ffe6cc;strokeColor=#d79b00;" parent="1" vertex="1">
          <mxGeometry x="149" y="406" width="120" height="60" as="geometry" />
        </mxCell>
        <mxCell id="FjAKKOvZAL7Q4lh6zARO-37" value="dispenses" style="shape=rhombus;perimeter=rhombusPerimeter;whiteSpace=wrap;html=1;align=center;fillColor=#ffe6cc;strokeColor=#d79b00;" parent="1" vertex="1">
          <mxGeometry x="329" y="320" width="120" height="60" as="geometry" />
        </mxCell>
        <mxCell id="FjAKKOvZAL7Q4lh6zARO-49" value="contains" style="shape=rhombus;perimeter=rhombusPerimeter;whiteSpace=wrap;html=1;align=center;fillColor=#ffe6cc;strokeColor=#d79b00;" parent="1" vertex="1">
          <mxGeometry x="530" y="200" width="120" height="60" as="geometry" />
        </mxCell>
        <mxCell id="FjAKKOvZAL7Q4lh6zARO-64" value="write" style="shape=rhombus;perimeter=rhombusPerimeter;whiteSpace=wrap;html=1;align=center;fillColor=#ffe6cc;strokeColor=#d79b00;" parent="1" vertex="1">
          <mxGeometry x="469" y="500" width="120" height="60" as="geometry" />
        </mxCell>
        <mxCell id="FjAKKOvZAL7Q4lh6zARO-79" value="" style="group" parent="1" vertex="1" connectable="0">
          <mxGeometry x="393" y="16" width="310" height="130" as="geometry" />
        </mxCell>
        <mxCell id="FjAKKOvZAL7Q4lh6zARO-2" value="DRUG" style="whiteSpace=wrap;html=1;align=center;fillColor=#dae8fc;strokeColor=#6c8ebf;" parent="FjAKKOvZAL7Q4lh6zARO-79" vertex="1">
          <mxGeometry x="140" y="90" width="100" height="40" as="geometry" />
        </mxCell>
        <mxCell id="FjAKKOvZAL7Q4lh6zARO-52" value="drugStr" style="ellipse;whiteSpace=wrap;html=1;align=center;fillColor=#e1d5e7;strokeColor=#9673a6;" parent="FjAKKOvZAL7Q4lh6zARO-79" vertex="1">
          <mxGeometry x="210" width="100" height="40" as="geometry" />
        </mxCell>
        <mxCell id="FjAKKOvZAL7Q4lh6zARO-53" value="drugName" style="ellipse;whiteSpace=wrap;html=1;align=center;fontStyle=4;fillColor=#e1d5e7;strokeColor=#9673a6;" parent="FjAKKOvZAL7Q4lh6zARO-79" vertex="1">
          <mxGeometry y="90" width="100" height="40" as="geometry" />
        </mxCell>
        <mxCell id="FjAKKOvZAL7Q4lh6zARO-54" value="drugMfr" style="ellipse;whiteSpace=wrap;html=1;align=center;fillColor=#e1d5e7;strokeColor=#9673a6;" parent="FjAKKOvZAL7Q4lh6zARO-79" vertex="1">
          <mxGeometry x="80" width="100" height="40" as="geometry" />
        </mxCell>
        <mxCell id="FjAKKOvZAL7Q4lh6zARO-57" value="" style="endArrow=none;html=1;rounded=0;entryX=0;entryY=0.5;entryDx=0;entryDy=0;" parent="FjAKKOvZAL7Q4lh6zARO-79" target="FjAKKOvZAL7Q4lh6zARO-2" edge="1">
          <mxGeometry relative="1" as="geometry">
            <mxPoint x="100" y="110" as="sourcePoint" />
            <mxPoint x="260" y="110" as="targetPoint" />
          </mxGeometry>
        </mxCell>
        <mxCell id="FjAKKOvZAL7Q4lh6zARO-58" value="" style="endArrow=none;html=1;rounded=0;entryX=0;entryY=0;entryDx=0;entryDy=0;" parent="FjAKKOvZAL7Q4lh6zARO-79" target="FjAKKOvZAL7Q4lh6zARO-2" edge="1">
          <mxGeometry relative="1" as="geometry">
            <mxPoint x="130" y="40" as="sourcePoint" />
            <mxPoint x="290" y="40" as="targetPoint" />
          </mxGeometry>
        </mxCell>
        <mxCell id="FjAKKOvZAL7Q4lh6zARO-59" value="" style="endArrow=none;html=1;rounded=0;entryX=0.5;entryY=0;entryDx=0;entryDy=0;" parent="FjAKKOvZAL7Q4lh6zARO-79" target="FjAKKOvZAL7Q4lh6zARO-2" edge="1">
          <mxGeometry relative="1" as="geometry">
            <mxPoint x="260" y="40" as="sourcePoint" />
            <mxPoint x="420" y="40" as="targetPoint" />
          </mxGeometry>
        </mxCell>
        <mxCell id="FjAKKOvZAL7Q4lh6zARO-80" value="" style="group" parent="1" vertex="1" connectable="0">
          <mxGeometry x="20" y="130" width="360" height="270" as="geometry" />
        </mxCell>
        <mxCell id="FjAKKOvZAL7Q4lh6zARO-1" value="STORE" style="whiteSpace=wrap;html=1;align=center;fillColor=#dae8fc;strokeColor=#6c8ebf;" parent="FjAKKOvZAL7Q4lh6zARO-80" vertex="1">
          <mxGeometry x="150" y="140" width="100" height="40" as="geometry" />
        </mxCell>
        <mxCell id="FjAKKOvZAL7Q4lh6zARO-7" value="storeNum" style="ellipse;whiteSpace=wrap;html=1;align=center;fontStyle=4;fillColor=#e1d5e7;strokeColor=#9673a6;" parent="FjAKKOvZAL7Q4lh6zARO-80" vertex="1">
          <mxGeometry x="30" y="60" width="100" height="40" as="geometry" />
        </mxCell>
        <mxCell id="FjAKKOvZAL7Q4lh6zARO-8" value="storeName" style="ellipse;whiteSpace=wrap;html=1;align=center;fillColor=#e1d5e7;strokeColor=#9673a6;" parent="FjAKKOvZAL7Q4lh6zARO-80" vertex="1">
          <mxGeometry x="80" width="100" height="40" as="geometry" />
        </mxCell>
        <mxCell id="FjAKKOvZAL7Q4lh6zARO-9" value="storePhone" style="ellipse;whiteSpace=wrap;html=1;align=center;fillColor=#e1d5e7;strokeColor=#9673a6;" parent="FjAKKOvZAL7Q4lh6zARO-80" vertex="1">
          <mxGeometry x="170" y="40" width="100" height="40" as="geometry" />
        </mxCell>
        <mxCell id="FjAKKOvZAL7Q4lh6zARO-10" value="storeEmail" style="ellipse;whiteSpace=wrap;html=1;align=center;fillColor=#e1d5e7;strokeColor=#9673a6;" parent="FjAKKOvZAL7Q4lh6zARO-80" vertex="1">
          <mxGeometry x="260" width="100" height="40" as="geometry" />
        </mxCell>
        <mxCell id="FjAKKOvZAL7Q4lh6zARO-11" value="storeZip" style="ellipse;whiteSpace=wrap;html=1;align=center;fillColor=#e1d5e7;strokeColor=#9673a6;" parent="FjAKKOvZAL7Q4lh6zARO-80" vertex="1">
          <mxGeometry y="140" width="100" height="40" as="geometry" />
        </mxCell>
        <mxCell id="FjAKKOvZAL7Q4lh6zARO-12" value="storeCity" style="ellipse;whiteSpace=wrap;html=1;align=center;fillColor=#e1d5e7;strokeColor=#9673a6;" parent="FjAKKOvZAL7Q4lh6zARO-80" vertex="1">
          <mxGeometry x="30" y="230" width="100" height="40" as="geometry" />
        </mxCell>
        <mxCell id="FjAKKOvZAL7Q4lh6zARO-14" value="" style="endArrow=none;html=1;rounded=0;exitX=0;exitY=0;exitDx=0;exitDy=0;entryX=0.5;entryY=1;entryDx=0;entryDy=0;" parent="FjAKKOvZAL7Q4lh6zARO-80" source="FjAKKOvZAL7Q4lh6zARO-1" target="FjAKKOvZAL7Q4lh6zARO-7" edge="1">
          <mxGeometry relative="1" as="geometry">
            <mxPoint x="110" y="250" as="sourcePoint" />
            <mxPoint x="270" y="250" as="targetPoint" />
          </mxGeometry>
        </mxCell>
        <mxCell id="FjAKKOvZAL7Q4lh6zARO-16" value="" style="endArrow=none;html=1;rounded=0;exitX=0.25;exitY=0;exitDx=0;exitDy=0;entryX=0.5;entryY=1;entryDx=0;entryDy=0;" parent="FjAKKOvZAL7Q4lh6zARO-80" source="FjAKKOvZAL7Q4lh6zARO-1" target="FjAKKOvZAL7Q4lh6zARO-8" edge="1">
          <mxGeometry relative="1" as="geometry">
            <mxPoint x="80" y="240" as="sourcePoint" />
            <mxPoint x="240" y="240" as="targetPoint" />
          </mxGeometry>
        </mxCell>
        <mxCell id="FjAKKOvZAL7Q4lh6zARO-17" value="" style="endArrow=none;html=1;rounded=0;exitX=0.5;exitY=0;exitDx=0;exitDy=0;entryX=0.5;entryY=1;entryDx=0;entryDy=0;" parent="FjAKKOvZAL7Q4lh6zARO-80" source="FjAKKOvZAL7Q4lh6zARO-1" target="FjAKKOvZAL7Q4lh6zARO-9" edge="1">
          <mxGeometry relative="1" as="geometry">
            <mxPoint x="150" y="260" as="sourcePoint" />
            <mxPoint x="310" y="260" as="targetPoint" />
          </mxGeometry>
        </mxCell>
        <mxCell id="FjAKKOvZAL7Q4lh6zARO-18" value="" style="endArrow=none;html=1;rounded=0;exitX=0.75;exitY=0;exitDx=0;exitDy=0;entryX=0.5;entryY=1;entryDx=0;entryDy=0;" parent="FjAKKOvZAL7Q4lh6zARO-80" source="FjAKKOvZAL7Q4lh6zARO-1" target="FjAKKOvZAL7Q4lh6zARO-10" edge="1">
          <mxGeometry relative="1" as="geometry">
            <mxPoint x="200" y="230" as="sourcePoint" />
            <mxPoint x="360" y="230" as="targetPoint" />
          </mxGeometry>
        </mxCell>
        <mxCell id="FjAKKOvZAL7Q4lh6zARO-20" value="" style="endArrow=none;html=1;rounded=0;exitX=1;exitY=0.5;exitDx=0;exitDy=0;entryX=0;entryY=0.5;entryDx=0;entryDy=0;" parent="FjAKKOvZAL7Q4lh6zARO-80" source="FjAKKOvZAL7Q4lh6zARO-11" target="FjAKKOvZAL7Q4lh6zARO-1" edge="1">
          <mxGeometry relative="1" as="geometry">
            <mxPoint x="-20" y="280" as="sourcePoint" />
            <mxPoint x="140" y="280" as="targetPoint" />
          </mxGeometry>
        </mxCell>
        <mxCell id="FjAKKOvZAL7Q4lh6zARO-21" value="" style="endArrow=none;html=1;rounded=0;exitX=0;exitY=1;exitDx=0;exitDy=0;entryX=0.5;entryY=0;entryDx=0;entryDy=0;" parent="FjAKKOvZAL7Q4lh6zARO-80" source="FjAKKOvZAL7Q4lh6zARO-1" target="FjAKKOvZAL7Q4lh6zARO-12" edge="1">
          <mxGeometry relative="1" as="geometry">
            <mxPoint x="300" y="280" as="sourcePoint" />
            <mxPoint x="460" y="280" as="targetPoint" />
          </mxGeometry>
        </mxCell>
        <mxCell id="FjAKKOvZAL7Q4lh6zARO-81" value="" style="group" parent="1" vertex="1" connectable="0">
          <mxGeometry x="9" y="546" width="250" height="190" as="geometry" />
        </mxCell>
        <mxCell id="FjAKKOvZAL7Q4lh6zARO-5" value="PHARMACIST" style="whiteSpace=wrap;html=1;align=center;fillColor=#dae8fc;strokeColor=#6c8ebf;" parent="FjAKKOvZAL7Q4lh6zARO-81" vertex="1">
          <mxGeometry x="150" width="100" height="40" as="geometry" />
        </mxCell>
        <mxCell id="FjAKKOvZAL7Q4lh6zARO-25" value="pharmName" style="ellipse;whiteSpace=wrap;html=1;align=center;fillColor=#e1d5e7;strokeColor=#9673a6;" parent="FjAKKOvZAL7Q4lh6zARO-81" vertex="1">
          <mxGeometry y="5" width="100" height="40" as="geometry" />
        </mxCell>
        <mxCell id="FjAKKOvZAL7Q4lh6zARO-26" value="pharmId" style="ellipse;whiteSpace=wrap;html=1;align=center;fontStyle=4;fillColor=#e1d5e7;strokeColor=#9673a6;" parent="FjAKKOvZAL7Q4lh6zARO-81" vertex="1">
          <mxGeometry x="60" y="90" width="100" height="40" as="geometry" />
        </mxCell>
        <mxCell id="FjAKKOvZAL7Q4lh6zARO-27" value="pharmPhone" style="ellipse;whiteSpace=wrap;html=1;align=center;fillColor=#e1d5e7;strokeColor=#9673a6;" parent="FjAKKOvZAL7Q4lh6zARO-81" vertex="1">
          <mxGeometry x="120" y="150" width="100" height="40" as="geometry" />
        </mxCell>
        <mxCell id="FjAKKOvZAL7Q4lh6zARO-29" value="" style="endArrow=none;html=1;rounded=0;exitX=0;exitY=1;exitDx=0;exitDy=0;entryX=0.5;entryY=0;entryDx=0;entryDy=0;" parent="FjAKKOvZAL7Q4lh6zARO-81" source="FjAKKOvZAL7Q4lh6zARO-5" target="FjAKKOvZAL7Q4lh6zARO-26" edge="1">
          <mxGeometry relative="1" as="geometry">
            <mxPoint x="350" y="70" as="sourcePoint" />
            <mxPoint x="510" y="70" as="targetPoint" />
          </mxGeometry>
        </mxCell>
        <mxCell id="FjAKKOvZAL7Q4lh6zARO-30" value="" style="endArrow=none;html=1;rounded=0;exitX=0.25;exitY=1;exitDx=0;exitDy=0;entryX=0.5;entryY=0;entryDx=0;entryDy=0;" parent="FjAKKOvZAL7Q4lh6zARO-81" source="FjAKKOvZAL7Q4lh6zARO-5" target="FjAKKOvZAL7Q4lh6zARO-27" edge="1">
          <mxGeometry relative="1" as="geometry">
            <mxPoint x="420" y="90" as="sourcePoint" />
            <mxPoint x="580" y="90" as="targetPoint" />
          </mxGeometry>
        </mxCell>
        <mxCell id="FjAKKOvZAL7Q4lh6zARO-31" value="" style="endArrow=none;html=1;rounded=0;exitX=0;exitY=0.5;exitDx=0;exitDy=0;entryX=1;entryY=0.5;entryDx=0;entryDy=0;" parent="FjAKKOvZAL7Q4lh6zARO-81" source="FjAKKOvZAL7Q4lh6zARO-5" target="FjAKKOvZAL7Q4lh6zARO-25" edge="1">
          <mxGeometry relative="1" as="geometry">
            <mxPoint x="380" y="120" as="sourcePoint" />
            <mxPoint x="540" y="120" as="targetPoint" />
          </mxGeometry>
        </mxCell>
        <mxCell id="FjAKKOvZAL7Q4lh6zARO-82" value="" style="group" parent="1" vertex="1" connectable="0">
          <mxGeometry x="259" y="551.5" width="410" height="209" as="geometry" />
        </mxCell>
        <mxCell id="FjAKKOvZAL7Q4lh6zARO-4" value="FORGER" style="whiteSpace=wrap;html=1;align=center;fillColor=#dae8fc;strokeColor=#6c8ebf;" parent="FjAKKOvZAL7Q4lh6zARO-82" vertex="1">
          <mxGeometry x="161" y="85" width="100" height="40" as="geometry" />
        </mxCell>
        <mxCell id="FjAKKOvZAL7Q4lh6zARO-62" value="forgName" style="ellipse;whiteSpace=wrap;html=1;align=center;fillColor=#e1d5e7;strokeColor=#9673a6;" parent="FjAKKOvZAL7Q4lh6zARO-82" vertex="1">
          <mxGeometry y="85" width="100" height="40" as="geometry" />
        </mxCell>
        <mxCell id="FjAKKOvZAL7Q4lh6zARO-74" style="edgeStyle=orthogonalEdgeStyle;rounded=0;orthogonalLoop=1;jettySize=auto;html=1;exitX=0;exitY=0.5;exitDx=0;exitDy=0;entryX=1;entryY=0.5;entryDx=0;entryDy=0;endArrow=none;endFill=0;" parent="FjAKKOvZAL7Q4lh6zARO-82" source="FjAKKOvZAL7Q4lh6zARO-4" target="FjAKKOvZAL7Q4lh6zARO-62" edge="1">
          <mxGeometry relative="1" as="geometry" />
        </mxCell>
        <mxCell id="FjAKKOvZAL7Q4lh6zARO-63" value="forgId" style="ellipse;whiteSpace=wrap;html=1;align=center;fontStyle=4;fillColor=#e1d5e7;strokeColor=#9673a6;" parent="FjAKKOvZAL7Q4lh6zARO-82" vertex="1">
          <mxGeometry x="100" width="100" height="40" as="geometry" />
        </mxCell>
        <mxCell id="FjAKKOvZAL7Q4lh6zARO-69" value="" style="endArrow=none;html=1;rounded=0;exitX=0.5;exitY=1;exitDx=0;exitDy=0;entryX=0;entryY=0;entryDx=0;entryDy=0;" parent="FjAKKOvZAL7Q4lh6zARO-82" source="FjAKKOvZAL7Q4lh6zARO-63" target="FjAKKOvZAL7Q4lh6zARO-4" edge="1">
          <mxGeometry relative="1" as="geometry">
            <mxPoint x="351" y="49" as="sourcePoint" />
            <mxPoint x="511" y="49" as="targetPoint" />
          </mxGeometry>
        </mxCell>
        <mxCell id="FjAKKOvZAL7Q4lh6zARO-70" value="forgPhone" style="ellipse;whiteSpace=wrap;html=1;align=center;fillColor=#e1d5e7;strokeColor=#9673a6;" parent="FjAKKOvZAL7Q4lh6zARO-82" vertex="1">
          <mxGeometry x="31" y="169" width="100" height="40" as="geometry" />
        </mxCell>
        <mxCell id="FjAKKOvZAL7Q4lh6zARO-71" value="forgAddress" style="ellipse;whiteSpace=wrap;html=1;align=center;fillColor=#e1d5e7;strokeColor=#9673a6;" parent="FjAKKOvZAL7Q4lh6zARO-82" vertex="1">
          <mxGeometry x="144" y="169" width="100" height="40" as="geometry" />
        </mxCell>
        <mxCell id="FjAKKOvZAL7Q4lh6zARO-72" value="forgZip" style="ellipse;whiteSpace=wrap;html=1;align=center;fillColor=#e1d5e7;strokeColor=#9673a6;" parent="FjAKKOvZAL7Q4lh6zARO-82" vertex="1">
          <mxGeometry x="310" y="85" width="100" height="40" as="geometry" />
        </mxCell>
        <mxCell id="FjAKKOvZAL7Q4lh6zARO-73" value="forgCity" style="ellipse;whiteSpace=wrap;html=1;align=center;fillColor=#e1d5e7;strokeColor=#9673a6;" parent="FjAKKOvZAL7Q4lh6zARO-82" vertex="1">
          <mxGeometry x="260" y="169" width="100" height="40" as="geometry" />
        </mxCell>
        <mxCell id="FjAKKOvZAL7Q4lh6zARO-75" value="" style="endArrow=none;html=1;rounded=0;exitX=0;exitY=1;exitDx=0;exitDy=0;entryX=1;entryY=0;entryDx=0;entryDy=0;" parent="FjAKKOvZAL7Q4lh6zARO-82" source="FjAKKOvZAL7Q4lh6zARO-4" target="FjAKKOvZAL7Q4lh6zARO-70" edge="1">
          <mxGeometry relative="1" as="geometry">
            <mxPoint x="131" y="169" as="sourcePoint" />
            <mxPoint x="291" y="169" as="targetPoint" />
          </mxGeometry>
        </mxCell>
        <mxCell id="FjAKKOvZAL7Q4lh6zARO-76" value="" style="endArrow=none;html=1;rounded=0;exitX=0.25;exitY=1;exitDx=0;exitDy=0;entryX=0.5;entryY=0;entryDx=0;entryDy=0;" parent="FjAKKOvZAL7Q4lh6zARO-82" source="FjAKKOvZAL7Q4lh6zARO-4" target="FjAKKOvZAL7Q4lh6zARO-71" edge="1">
          <mxGeometry relative="1" as="geometry">
            <mxPoint x="271" y="159" as="sourcePoint" />
            <mxPoint x="431" y="159" as="targetPoint" />
          </mxGeometry>
        </mxCell>
        <mxCell id="FjAKKOvZAL7Q4lh6zARO-77" value="" style="endArrow=none;html=1;rounded=0;exitX=0.5;exitY=1;exitDx=0;exitDy=0;entryX=0.5;entryY=0;entryDx=0;entryDy=0;" parent="FjAKKOvZAL7Q4lh6zARO-82" source="FjAKKOvZAL7Q4lh6zARO-4" target="FjAKKOvZAL7Q4lh6zARO-73" edge="1">
          <mxGeometry relative="1" as="geometry">
            <mxPoint x="351" y="89" as="sourcePoint" />
            <mxPoint x="511" y="89" as="targetPoint" />
          </mxGeometry>
        </mxCell>
        <mxCell id="FjAKKOvZAL7Q4lh6zARO-78" value="" style="endArrow=none;html=1;rounded=0;exitX=1;exitY=0.5;exitDx=0;exitDy=0;entryX=0;entryY=0.5;entryDx=0;entryDy=0;" parent="FjAKKOvZAL7Q4lh6zARO-82" source="FjAKKOvZAL7Q4lh6zARO-4" target="FjAKKOvZAL7Q4lh6zARO-72" edge="1">
          <mxGeometry relative="1" as="geometry">
            <mxPoint x="311" y="89" as="sourcePoint" />
            <mxPoint x="471" y="89" as="targetPoint" />
          </mxGeometry>
        </mxCell>
        <mxCell id="FjAKKOvZAL7Q4lh6zARO-83" value="" style="group" parent="1" vertex="1" connectable="0">
          <mxGeometry x="420" y="240" width="500" height="210" as="geometry" />
        </mxCell>
        <mxCell id="FjAKKOvZAL7Q4lh6zARO-3" value="PRESCRIPTION" style="whiteSpace=wrap;html=1;align=center;fillColor=#dae8fc;strokeColor=#6c8ebf;" parent="FjAKKOvZAL7Q4lh6zARO-83" vertex="1">
          <mxGeometry x="106" y="100" width="100" height="40" as="geometry" />
        </mxCell>
        <mxCell id="FjAKKOvZAL7Q4lh6zARO-32" value="fraudId" style="ellipse;whiteSpace=wrap;html=1;align=center;fontStyle=4;fillColor=#e1d5e7;strokeColor=#9673a6;" parent="FjAKKOvZAL7Q4lh6zARO-83" vertex="1">
          <mxGeometry width="100" height="40" as="geometry" />
        </mxCell>
        <mxCell id="FjAKKOvZAL7Q4lh6zARO-33" value="date" style="ellipse;whiteSpace=wrap;html=1;align=center;fillColor=#e1d5e7;strokeColor=#9673a6;" parent="FjAKKOvZAL7Q4lh6zARO-83" vertex="1">
          <mxGeometry y="170" width="100" height="40" as="geometry" />
        </mxCell>
        <mxCell id="FjAKKOvZAL7Q4lh6zARO-34" value="patName" style="ellipse;whiteSpace=wrap;html=1;align=center;fillColor=#e1d5e7;strokeColor=#9673a6;" parent="FjAKKOvZAL7Q4lh6zARO-83" vertex="1">
          <mxGeometry x="226" y="170" width="100" height="40" as="geometry" />
        </mxCell>
        <mxCell id="FjAKKOvZAL7Q4lh6zARO-35" value="docSign" style="ellipse;whiteSpace=wrap;html=1;align=center;fillColor=#e1d5e7;strokeColor=#9673a6;" parent="FjAKKOvZAL7Q4lh6zARO-83" vertex="1">
          <mxGeometry x="266" y="100" width="100" height="40" as="geometry" />
        </mxCell>
        <mxCell id="FjAKKOvZAL7Q4lh6zARO-36" value="qtyDrug" style="ellipse;whiteSpace=wrap;html=1;align=center;fillColor=#e1d5e7;strokeColor=#9673a6;" parent="FjAKKOvZAL7Q4lh6zARO-83" vertex="1">
          <mxGeometry x="226" width="100" height="40" as="geometry" />
        </mxCell>
        <mxCell id="FjAKKOvZAL7Q4lh6zARO-43" value="" style="endArrow=none;html=1;rounded=0;exitX=0.5;exitY=1;exitDx=0;exitDy=0;entryX=0;entryY=0;entryDx=0;entryDy=0;" parent="FjAKKOvZAL7Q4lh6zARO-83" source="FjAKKOvZAL7Q4lh6zARO-32" target="FjAKKOvZAL7Q4lh6zARO-3" edge="1">
          <mxGeometry relative="1" as="geometry">
            <mxPoint x="96" y="220" as="sourcePoint" />
            <mxPoint x="256" y="220" as="targetPoint" />
          </mxGeometry>
        </mxCell>
        <mxCell id="FjAKKOvZAL7Q4lh6zARO-45" value="" style="endArrow=none;html=1;rounded=0;exitX=0;exitY=1;exitDx=0;exitDy=0;entryX=0.5;entryY=0;entryDx=0;entryDy=0;" parent="FjAKKOvZAL7Q4lh6zARO-83" source="FjAKKOvZAL7Q4lh6zARO-3" target="FjAKKOvZAL7Q4lh6zARO-33" edge="1">
          <mxGeometry relative="1" as="geometry">
            <mxPoint x="136" y="260" as="sourcePoint" />
            <mxPoint x="296" y="260" as="targetPoint" />
          </mxGeometry>
        </mxCell>
        <mxCell id="FjAKKOvZAL7Q4lh6zARO-46" value="" style="endArrow=none;html=1;rounded=0;entryX=0;entryY=0;entryDx=0;entryDy=0;" parent="FjAKKOvZAL7Q4lh6zARO-83" target="FjAKKOvZAL7Q4lh6zARO-34" edge="1">
          <mxGeometry relative="1" as="geometry">
            <mxPoint x="206" y="140" as="sourcePoint" />
            <mxPoint x="366" y="140" as="targetPoint" />
          </mxGeometry>
        </mxCell>
        <mxCell id="FjAKKOvZAL7Q4lh6zARO-47" value="" style="endArrow=none;html=1;rounded=0;" parent="FjAKKOvZAL7Q4lh6zARO-83" edge="1">
          <mxGeometry relative="1" as="geometry">
            <mxPoint x="206" y="120" as="sourcePoint" />
            <mxPoint x="266" y="120" as="targetPoint" />
          </mxGeometry>
        </mxCell>
        <mxCell id="FjAKKOvZAL7Q4lh6zARO-48" value="" style="endArrow=none;html=1;rounded=0;entryX=0.5;entryY=1;entryDx=0;entryDy=0;exitX=0.75;exitY=0;exitDx=0;exitDy=0;" parent="FjAKKOvZAL7Q4lh6zARO-83" target="FjAKKOvZAL7Q4lh6zARO-36" edge="1" source="FjAKKOvZAL7Q4lh6zARO-3">
          <mxGeometry relative="1" as="geometry">
            <mxPoint x="206" y="100" as="sourcePoint" />
            <mxPoint x="366" y="100" as="targetPoint" />
          </mxGeometry>
        </mxCell>
        <mxCell id="H7BFt8TT2uLQwTArXr9d-20" value="have" style="shape=rhombus;perimeter=rhombusPerimeter;whiteSpace=wrap;html=1;align=center;fillColor=#ffe6cc;strokeColor=#d79b00;" vertex="1" parent="FjAKKOvZAL7Q4lh6zARO-83">
          <mxGeometry x="350" y="20" width="120" height="60" as="geometry" />
        </mxCell>
        <mxCell id="H7BFt8TT2uLQwTArXr9d-25" value="" style="endArrow=none;html=1;rounded=0;exitX=0;exitY=1;exitDx=0;exitDy=0;entryX=1;entryY=0.25;entryDx=0;entryDy=0;" edge="1" parent="FjAKKOvZAL7Q4lh6zARO-83" source="H7BFt8TT2uLQwTArXr9d-20" target="FjAKKOvZAL7Q4lh6zARO-3">
          <mxGeometry relative="1" as="geometry">
            <mxPoint x="570" y="200" as="sourcePoint" />
            <mxPoint x="230" y="100" as="targetPoint" />
          </mxGeometry>
        </mxCell>
        <mxCell id="H7BFt8TT2uLQwTArXr9d-26" value="N" style="resizable=0;html=1;whiteSpace=wrap;align=right;verticalAlign=bottom;" connectable="0" vertex="1" parent="H7BFt8TT2uLQwTArXr9d-25">
          <mxGeometry x="1" relative="1" as="geometry">
            <mxPoint x="12" y="-5" as="offset" />
          </mxGeometry>
        </mxCell>
        <mxCell id="FjAKKOvZAL7Q4lh6zARO-84" value="prescribes" style="shape=rhombus;perimeter=rhombusPerimeter;whiteSpace=wrap;html=1;align=center;fillColor=#ffe6cc;strokeColor=#d79b00;" parent="1" vertex="1">
          <mxGeometry x="686" y="500" width="120" height="60" as="geometry" />
        </mxCell>
        <mxCell id="FjAKKOvZAL7Q4lh6zARO-101" value="" style="endArrow=none;html=1;rounded=0;exitX=0.5;exitY=0;exitDx=0;exitDy=0;entryX=0.5;entryY=1;entryDx=0;entryDy=0;" parent="1" source="FjAKKOvZAL7Q4lh6zARO-22" target="FjAKKOvZAL7Q4lh6zARO-1" edge="1">
          <mxGeometry relative="1" as="geometry">
            <mxPoint x="250" y="500" as="sourcePoint" />
            <mxPoint x="260" y="370" as="targetPoint" />
          </mxGeometry>
        </mxCell>
        <mxCell id="FjAKKOvZAL7Q4lh6zARO-102" value="1" style="resizable=0;html=1;whiteSpace=wrap;align=right;verticalAlign=bottom;" parent="FjAKKOvZAL7Q4lh6zARO-101" connectable="0" vertex="1">
          <mxGeometry x="1" relative="1" as="geometry">
            <mxPoint x="-6" y="21" as="offset" />
          </mxGeometry>
        </mxCell>
        <mxCell id="FjAKKOvZAL7Q4lh6zARO-103" value="" style="endArrow=none;html=1;rounded=0;exitX=0.5;exitY=1;exitDx=0;exitDy=0;entryX=0.5;entryY=0;entryDx=0;entryDy=0;" parent="1" source="FjAKKOvZAL7Q4lh6zARO-22" target="FjAKKOvZAL7Q4lh6zARO-5" edge="1">
          <mxGeometry relative="1" as="geometry">
            <mxPoint x="210" y="500" as="sourcePoint" />
            <mxPoint x="370" y="500" as="targetPoint" />
          </mxGeometry>
        </mxCell>
        <mxCell id="FjAKKOvZAL7Q4lh6zARO-104" value="N" style="resizable=0;html=1;whiteSpace=wrap;align=right;verticalAlign=bottom;" parent="FjAKKOvZAL7Q4lh6zARO-103" connectable="0" vertex="1">
          <mxGeometry x="1" relative="1" as="geometry" />
        </mxCell>
        <mxCell id="FjAKKOvZAL7Q4lh6zARO-105" value="" style="endArrow=none;html=1;rounded=0;entryX=1;entryY=0.5;entryDx=0;entryDy=0;exitX=0;exitY=0.5;exitDx=0;exitDy=0;" parent="1" source="FjAKKOvZAL7Q4lh6zARO-37" target="FjAKKOvZAL7Q4lh6zARO-1" edge="1">
          <mxGeometry relative="1" as="geometry">
            <mxPoint x="250" y="400" as="sourcePoint" />
            <mxPoint x="410" y="400" as="targetPoint" />
          </mxGeometry>
        </mxCell>
        <mxCell id="FjAKKOvZAL7Q4lh6zARO-106" value="1" style="resizable=0;html=1;whiteSpace=wrap;align=right;verticalAlign=bottom;" parent="FjAKKOvZAL7Q4lh6zARO-105" connectable="0" vertex="1">
          <mxGeometry x="1" relative="1" as="geometry">
            <mxPoint x="13" y="5" as="offset" />
          </mxGeometry>
        </mxCell>
        <mxCell id="FjAKKOvZAL7Q4lh6zARO-107" value="" style="endArrow=none;html=1;rounded=0;exitX=1;exitY=0.5;exitDx=0;exitDy=0;entryX=0;entryY=0.5;entryDx=0;entryDy=0;" parent="1" source="FjAKKOvZAL7Q4lh6zARO-37" target="FjAKKOvZAL7Q4lh6zARO-3" edge="1">
          <mxGeometry relative="1" as="geometry">
            <mxPoint x="300" y="400" as="sourcePoint" />
            <mxPoint x="460" y="400" as="targetPoint" />
          </mxGeometry>
        </mxCell>
        <mxCell id="FjAKKOvZAL7Q4lh6zARO-108" value="N" style="resizable=0;html=1;whiteSpace=wrap;align=right;verticalAlign=bottom;" parent="FjAKKOvZAL7Q4lh6zARO-107" connectable="0" vertex="1">
          <mxGeometry x="1" relative="1" as="geometry">
            <mxPoint x="-4" y="-1" as="offset" />
          </mxGeometry>
        </mxCell>
        <mxCell id="FjAKKOvZAL7Q4lh6zARO-109" value="" style="endArrow=none;html=1;rounded=0;entryX=0.5;entryY=1;entryDx=0;entryDy=0;exitX=0.5;exitY=0;exitDx=0;exitDy=0;" parent="1" source="FjAKKOvZAL7Q4lh6zARO-49" target="FjAKKOvZAL7Q4lh6zARO-2" edge="1">
          <mxGeometry relative="1" as="geometry">
            <mxPoint x="630" y="190" as="sourcePoint" />
            <mxPoint x="790" y="190" as="targetPoint" />
          </mxGeometry>
        </mxCell>
        <mxCell id="FjAKKOvZAL7Q4lh6zARO-110" value="M" style="resizable=0;html=1;whiteSpace=wrap;align=right;verticalAlign=bottom;" parent="FjAKKOvZAL7Q4lh6zARO-109" connectable="0" vertex="1">
          <mxGeometry x="1" relative="1" as="geometry">
            <mxPoint x="1" y="20" as="offset" />
          </mxGeometry>
        </mxCell>
        <mxCell id="FjAKKOvZAL7Q4lh6zARO-111" value="" style="endArrow=none;html=1;rounded=0;entryX=0.5;entryY=0;entryDx=0;entryDy=0;exitX=0.5;exitY=1;exitDx=0;exitDy=0;" parent="1" source="FjAKKOvZAL7Q4lh6zARO-49" target="FjAKKOvZAL7Q4lh6zARO-3" edge="1">
          <mxGeometry relative="1" as="geometry">
            <mxPoint x="490" y="300" as="sourcePoint" />
            <mxPoint x="650" y="300" as="targetPoint" />
          </mxGeometry>
        </mxCell>
        <mxCell id="FjAKKOvZAL7Q4lh6zARO-112" value="N" style="resizable=0;html=1;whiteSpace=wrap;align=right;verticalAlign=bottom;" parent="FjAKKOvZAL7Q4lh6zARO-111" connectable="0" vertex="1">
          <mxGeometry x="1" relative="1" as="geometry" />
        </mxCell>
        <mxCell id="FjAKKOvZAL7Q4lh6zARO-113" value="" style="endArrow=none;html=1;rounded=0;entryX=0.25;entryY=1;entryDx=0;entryDy=0;exitX=0.5;exitY=0;exitDx=0;exitDy=0;" parent="1" source="FjAKKOvZAL7Q4lh6zARO-64" target="FjAKKOvZAL7Q4lh6zARO-3" edge="1">
          <mxGeometry relative="1" as="geometry">
            <mxPoint x="440" y="480" as="sourcePoint" />
            <mxPoint x="600" y="480" as="targetPoint" />
          </mxGeometry>
        </mxCell>
        <mxCell id="FjAKKOvZAL7Q4lh6zARO-114" value="N" style="resizable=0;html=1;whiteSpace=wrap;align=right;verticalAlign=bottom;" parent="FjAKKOvZAL7Q4lh6zARO-113" connectable="0" vertex="1">
          <mxGeometry x="1" relative="1" as="geometry">
            <mxPoint x="12" y="19" as="offset" />
          </mxGeometry>
        </mxCell>
        <mxCell id="FjAKKOvZAL7Q4lh6zARO-115" value="" style="endArrow=none;html=1;rounded=0;entryX=0.5;entryY=0;entryDx=0;entryDy=0;exitX=0.5;exitY=1;exitDx=0;exitDy=0;" parent="1" source="FjAKKOvZAL7Q4lh6zARO-64" target="FjAKKOvZAL7Q4lh6zARO-4" edge="1">
          <mxGeometry relative="1" as="geometry">
            <mxPoint x="500" y="610" as="sourcePoint" />
            <mxPoint x="660" y="610" as="targetPoint" />
          </mxGeometry>
        </mxCell>
        <mxCell id="FjAKKOvZAL7Q4lh6zARO-116" value="1" style="resizable=0;html=1;whiteSpace=wrap;align=right;verticalAlign=bottom;" parent="FjAKKOvZAL7Q4lh6zARO-115" connectable="0" vertex="1">
          <mxGeometry x="1" relative="1" as="geometry" />
        </mxCell>
        <mxCell id="FjAKKOvZAL7Q4lh6zARO-117" value="" style="endArrow=none;html=1;rounded=0;entryX=0.75;entryY=1;entryDx=0;entryDy=0;exitX=0;exitY=0.5;exitDx=0;exitDy=0;" parent="1" source="FjAKKOvZAL7Q4lh6zARO-84" target="FjAKKOvZAL7Q4lh6zARO-3" edge="1">
          <mxGeometry relative="1" as="geometry">
            <mxPoint x="590" y="470" as="sourcePoint" />
            <mxPoint x="750" y="470" as="targetPoint" />
          </mxGeometry>
        </mxCell>
        <mxCell id="FjAKKOvZAL7Q4lh6zARO-118" value="N" style="resizable=0;html=1;whiteSpace=wrap;align=right;verticalAlign=bottom;" parent="FjAKKOvZAL7Q4lh6zARO-117" connectable="0" vertex="1">
          <mxGeometry x="1" relative="1" as="geometry">
            <mxPoint x="2" y="20" as="offset" />
          </mxGeometry>
        </mxCell>
        <mxCell id="FjAKKOvZAL7Q4lh6zARO-119" value="" style="endArrow=none;html=1;rounded=0;exitX=1;exitY=0.5;exitDx=0;exitDy=0;entryX=0.25;entryY=0;entryDx=0;entryDy=0;" parent="1" source="FjAKKOvZAL7Q4lh6zARO-84" target="FjAKKOvZAL7Q4lh6zARO-6" edge="1">
          <mxGeometry relative="1" as="geometry">
            <mxPoint x="860" y="520" as="sourcePoint" />
            <mxPoint x="940" y="490" as="targetPoint" />
          </mxGeometry>
        </mxCell>
        <mxCell id="FjAKKOvZAL7Q4lh6zARO-120" value="M" style="resizable=0;html=1;whiteSpace=wrap;align=right;verticalAlign=bottom;" parent="FjAKKOvZAL7Q4lh6zARO-119" connectable="0" vertex="1">
          <mxGeometry x="1" relative="1" as="geometry">
            <mxPoint x="8" y="-2" as="offset" />
          </mxGeometry>
        </mxCell>
        <mxCell id="FjAKKOvZAL7Q4lh6zARO-121" value="" style="group" parent="1" vertex="1" connectable="0">
          <mxGeometry x="740" y="540" width="340" height="270" as="geometry" />
        </mxCell>
        <mxCell id="FjAKKOvZAL7Q4lh6zARO-6" value="DOCTOR" style="whiteSpace=wrap;html=1;align=center;fillColor=#dae8fc;strokeColor=#6c8ebf;" parent="FjAKKOvZAL7Q4lh6zARO-121" vertex="1">
          <mxGeometry x="130" y="96" width="100" height="40" as="geometry" />
        </mxCell>
        <mxCell id="FjAKKOvZAL7Q4lh6zARO-87" value="deaNum" style="ellipse;whiteSpace=wrap;html=1;align=center;fontStyle=4;fillColor=#e1d5e7;strokeColor=#9673a6;" parent="FjAKKOvZAL7Q4lh6zARO-121" vertex="1">
          <mxGeometry y="56" width="100" height="40" as="geometry" />
        </mxCell>
        <mxCell id="FjAKKOvZAL7Q4lh6zARO-89" value="deaName" style="ellipse;whiteSpace=wrap;html=1;align=center;fillColor=#e1d5e7;strokeColor=#9673a6;" parent="FjAKKOvZAL7Q4lh6zARO-121" vertex="1">
          <mxGeometry x="50" y="180.5" width="100" height="40" as="geometry" />
        </mxCell>
        <mxCell id="FjAKKOvZAL7Q4lh6zARO-91" value="deaPhone" style="ellipse;whiteSpace=wrap;html=1;align=center;fillColor=#e1d5e7;strokeColor=#9673a6;" parent="FjAKKOvZAL7Q4lh6zARO-121" vertex="1">
          <mxGeometry y="130" width="100" height="40" as="geometry" />
        </mxCell>
        <mxCell id="FjAKKOvZAL7Q4lh6zARO-92" value="deaAddress" style="ellipse;whiteSpace=wrap;html=1;align=center;fillColor=#e1d5e7;strokeColor=#9673a6;" parent="FjAKKOvZAL7Q4lh6zARO-121" vertex="1">
          <mxGeometry x="110" y="230" width="100" height="40" as="geometry" />
        </mxCell>
        <mxCell id="FjAKKOvZAL7Q4lh6zARO-93" value="deaZip" style="ellipse;whiteSpace=wrap;html=1;align=center;fillColor=#e1d5e7;strokeColor=#9673a6;" parent="FjAKKOvZAL7Q4lh6zARO-121" vertex="1">
          <mxGeometry x="240" y="50" width="100" height="40" as="geometry" />
        </mxCell>
        <mxCell id="FjAKKOvZAL7Q4lh6zARO-94" value="deaCity" style="ellipse;whiteSpace=wrap;html=1;align=center;fillColor=#e1d5e7;strokeColor=#9673a6;" parent="FjAKKOvZAL7Q4lh6zARO-121" vertex="1">
          <mxGeometry x="150" width="100" height="40" as="geometry" />
        </mxCell>
        <mxCell id="FjAKKOvZAL7Q4lh6zARO-95" value="" style="endArrow=none;html=1;rounded=0;exitX=1;exitY=0.5;exitDx=0;exitDy=0;entryX=0;entryY=0.25;entryDx=0;entryDy=0;" parent="FjAKKOvZAL7Q4lh6zARO-121" source="FjAKKOvZAL7Q4lh6zARO-87" target="FjAKKOvZAL7Q4lh6zARO-6" edge="1">
          <mxGeometry relative="1" as="geometry">
            <mxPoint x="130" y="220" as="sourcePoint" />
            <mxPoint x="290" y="220" as="targetPoint" />
          </mxGeometry>
        </mxCell>
        <mxCell id="FjAKKOvZAL7Q4lh6zARO-96" value="" style="endArrow=none;html=1;rounded=0;exitX=0;exitY=1;exitDx=0;exitDy=0;entryX=1;entryY=0.5;entryDx=0;entryDy=0;" parent="FjAKKOvZAL7Q4lh6zARO-121" source="FjAKKOvZAL7Q4lh6zARO-6" target="FjAKKOvZAL7Q4lh6zARO-91" edge="1">
          <mxGeometry relative="1" as="geometry">
            <mxPoint x="190" y="210" as="sourcePoint" />
            <mxPoint x="350" y="210" as="targetPoint" />
          </mxGeometry>
        </mxCell>
        <mxCell id="FjAKKOvZAL7Q4lh6zARO-97" value="" style="endArrow=none;html=1;rounded=0;exitX=0.25;exitY=1;exitDx=0;exitDy=0;entryX=0.5;entryY=0;entryDx=0;entryDy=0;" parent="FjAKKOvZAL7Q4lh6zARO-121" source="FjAKKOvZAL7Q4lh6zARO-6" target="FjAKKOvZAL7Q4lh6zARO-89" edge="1">
          <mxGeometry relative="1" as="geometry">
            <mxPoint x="160" y="150" as="sourcePoint" />
            <mxPoint x="360" y="170" as="targetPoint" />
          </mxGeometry>
        </mxCell>
        <mxCell id="FjAKKOvZAL7Q4lh6zARO-98" value="" style="endArrow=none;html=1;rounded=0;exitX=0.5;exitY=1;exitDx=0;exitDy=0;entryX=0.5;entryY=0;entryDx=0;entryDy=0;" parent="FjAKKOvZAL7Q4lh6zARO-121" source="FjAKKOvZAL7Q4lh6zARO-6" target="FjAKKOvZAL7Q4lh6zARO-92" edge="1">
          <mxGeometry relative="1" as="geometry">
            <mxPoint x="220" y="180" as="sourcePoint" />
            <mxPoint x="380" y="180" as="targetPoint" />
          </mxGeometry>
        </mxCell>
        <mxCell id="FjAKKOvZAL7Q4lh6zARO-99" value="" style="endArrow=none;html=1;rounded=0;exitX=1;exitY=1;exitDx=0;exitDy=0;entryX=0.5;entryY=1;entryDx=0;entryDy=0;" parent="FjAKKOvZAL7Q4lh6zARO-121" source="FjAKKOvZAL7Q4lh6zARO-6" target="FjAKKOvZAL7Q4lh6zARO-93" edge="1">
          <mxGeometry relative="1" as="geometry">
            <mxPoint x="300" y="150" as="sourcePoint" />
            <mxPoint x="280" y="170" as="targetPoint" />
          </mxGeometry>
        </mxCell>
        <mxCell id="FjAKKOvZAL7Q4lh6zARO-100" value="" style="endArrow=none;html=1;rounded=0;exitX=0.5;exitY=0;exitDx=0;exitDy=0;entryX=0.5;entryY=1;entryDx=0;entryDy=0;" parent="FjAKKOvZAL7Q4lh6zARO-121" source="FjAKKOvZAL7Q4lh6zARO-6" target="FjAKKOvZAL7Q4lh6zARO-94" edge="1">
          <mxGeometry relative="1" as="geometry">
            <mxPoint x="270" y="50" as="sourcePoint" />
            <mxPoint x="430" y="50" as="targetPoint" />
          </mxGeometry>
        </mxCell>
        <mxCell id="FjAKKOvZAL7Q4lh6zARO-122" value="&lt;font style=&quot;font-size: 20px;&quot;&gt;&lt;b&gt;Pharmacy Fraud Database&lt;/b&gt;&lt;/font&gt;" style="text;html=1;strokeColor=none;fillColor=none;align=center;verticalAlign=middle;whiteSpace=wrap;rounded=0;fontStyle=4" parent="1" vertex="1">
          <mxGeometry x="30" y="30" width="270" height="30" as="geometry" />
        </mxCell>
        <mxCell id="H7BFt8TT2uLQwTArXr9d-3" value="userBirth" style="ellipse;whiteSpace=wrap;html=1;align=center;fillColor=#e1d5e7;strokeColor=#9673a6;" vertex="1" parent="1">
          <mxGeometry x="696" y="160" width="100" height="40" as="geometry" />
        </mxCell>
        <mxCell id="H7BFt8TT2uLQwTArXr9d-23" value="" style="endArrow=none;html=1;rounded=0;entryX=0.5;entryY=1;entryDx=0;entryDy=0;exitX=1;exitY=0;exitDx=0;exitDy=0;" edge="1" parent="1" source="H7BFt8TT2uLQwTArXr9d-20" target="H7BFt8TT2uLQwTArXr9d-1">
          <mxGeometry relative="1" as="geometry">
            <mxPoint x="880" y="260" as="sourcePoint" />
            <mxPoint x="910" y="280" as="targetPoint" />
          </mxGeometry>
        </mxCell>
        <mxCell id="H7BFt8TT2uLQwTArXr9d-24" value="1" style="resizable=0;html=1;whiteSpace=wrap;align=right;verticalAlign=bottom;" connectable="0" vertex="1" parent="H7BFt8TT2uLQwTArXr9d-23">
          <mxGeometry x="1" relative="1" as="geometry">
            <mxPoint x="7" y="20" as="offset" />
          </mxGeometry>
        </mxCell>
        <mxCell id="H7BFt8TT2uLQwTArXr9d-27" value="" style="group" vertex="1" connectable="0" parent="1">
          <mxGeometry x="740" y="20" width="350" height="360" as="geometry" />
        </mxCell>
        <mxCell id="H7BFt8TT2uLQwTArXr9d-2" value="userID" style="ellipse;whiteSpace=wrap;html=1;align=center;fontStyle=4;fillColor=#e1d5e7;strokeColor=#9673a6;" vertex="1" parent="H7BFt8TT2uLQwTArXr9d-27">
          <mxGeometry y="60" width="100" height="40" as="geometry" />
        </mxCell>
        <mxCell id="H7BFt8TT2uLQwTArXr9d-4" value="userPickTime" style="ellipse;whiteSpace=wrap;html=1;align=center;fillColor=#e1d5e7;strokeColor=#9673a6;" vertex="1" parent="H7BFt8TT2uLQwTArXr9d-27">
          <mxGeometry x="50" y="5" width="100" height="40" as="geometry" />
        </mxCell>
        <mxCell id="H7BFt8TT2uLQwTArXr9d-5" value="userPickDate" style="ellipse;whiteSpace=wrap;html=1;align=center;fillColor=#e1d5e7;strokeColor=#9673a6;" vertex="1" parent="H7BFt8TT2uLQwTArXr9d-27">
          <mxGeometry x="170" width="100" height="40" as="geometry" />
        </mxCell>
        <mxCell id="H7BFt8TT2uLQwTArXr9d-6" value="userName" style="ellipse;whiteSpace=wrap;html=1;align=center;fillColor=#e1d5e7;strokeColor=#9673a6;" vertex="1" parent="H7BFt8TT2uLQwTArXr9d-27">
          <mxGeometry x="250" y="41" width="100" height="40" as="geometry" />
        </mxCell>
        <mxCell id="H7BFt8TT2uLQwTArXr9d-7" value="userPhone" style="ellipse;whiteSpace=wrap;html=1;align=center;fillColor=#e1d5e7;strokeColor=#9673a6;" vertex="1" parent="H7BFt8TT2uLQwTArXr9d-27">
          <mxGeometry x="250" y="130" width="100" height="40" as="geometry" />
        </mxCell>
        <mxCell id="H7BFt8TT2uLQwTArXr9d-8" value="userCity" style="ellipse;whiteSpace=wrap;html=1;align=center;fillColor=#e1d5e7;strokeColor=#9673a6;" vertex="1" parent="H7BFt8TT2uLQwTArXr9d-27">
          <mxGeometry x="250" y="190" width="100" height="40" as="geometry" />
        </mxCell>
        <mxCell id="H7BFt8TT2uLQwTArXr9d-1" value="USER" style="whiteSpace=wrap;html=1;align=center;fillColor=#dae8fc;strokeColor=#6c8ebf;" vertex="1" parent="H7BFt8TT2uLQwTArXr9d-27">
          <mxGeometry x="110" y="150" width="100" height="40" as="geometry" />
        </mxCell>
        <mxCell id="H7BFt8TT2uLQwTArXr9d-10" value="userZip" style="ellipse;whiteSpace=wrap;html=1;align=center;fillColor=#e1d5e7;strokeColor=#9673a6;" vertex="1" parent="H7BFt8TT2uLQwTArXr9d-27">
          <mxGeometry x="240" y="270" width="100" height="40" as="geometry" />
        </mxCell>
        <mxCell id="H7BFt8TT2uLQwTArXr9d-9" value="userAddress" style="ellipse;whiteSpace=wrap;html=1;align=center;fillColor=#e1d5e7;strokeColor=#9673a6;" vertex="1" parent="H7BFt8TT2uLQwTArXr9d-27">
          <mxGeometry x="170" y="320" width="100" height="40" as="geometry" />
        </mxCell>
        <mxCell id="H7BFt8TT2uLQwTArXr9d-11" value="" style="endArrow=none;html=1;rounded=0;exitX=1;exitY=1;exitDx=0;exitDy=0;entryX=0;entryY=0.25;entryDx=0;entryDy=0;" edge="1" parent="H7BFt8TT2uLQwTArXr9d-27" source="H7BFt8TT2uLQwTArXr9d-3" target="H7BFt8TT2uLQwTArXr9d-1">
          <mxGeometry relative="1" as="geometry">
            <mxPoint x="180" y="280" as="sourcePoint" />
            <mxPoint x="340" y="280" as="targetPoint" />
          </mxGeometry>
        </mxCell>
        <mxCell id="H7BFt8TT2uLQwTArXr9d-12" value="" style="endArrow=none;html=1;rounded=0;exitX=0.5;exitY=1;exitDx=0;exitDy=0;entryX=0.25;entryY=0;entryDx=0;entryDy=0;" edge="1" parent="H7BFt8TT2uLQwTArXr9d-27" source="H7BFt8TT2uLQwTArXr9d-2" target="H7BFt8TT2uLQwTArXr9d-1">
          <mxGeometry relative="1" as="geometry">
            <mxPoint x="130" y="120" as="sourcePoint" />
            <mxPoint x="290" y="120" as="targetPoint" />
          </mxGeometry>
        </mxCell>
        <mxCell id="H7BFt8TT2uLQwTArXr9d-13" value="" style="endArrow=none;html=1;rounded=0;exitX=0.5;exitY=1;exitDx=0;exitDy=0;entryX=0.5;entryY=0;entryDx=0;entryDy=0;" edge="1" parent="H7BFt8TT2uLQwTArXr9d-27" source="H7BFt8TT2uLQwTArXr9d-4" target="H7BFt8TT2uLQwTArXr9d-1">
          <mxGeometry relative="1" as="geometry">
            <mxPoint x="220" y="250" as="sourcePoint" />
            <mxPoint x="380" y="250" as="targetPoint" />
          </mxGeometry>
        </mxCell>
        <mxCell id="H7BFt8TT2uLQwTArXr9d-14" value="" style="endArrow=none;html=1;rounded=0;exitX=0;exitY=1;exitDx=0;exitDy=0;entryX=0.75;entryY=0;entryDx=0;entryDy=0;" edge="1" parent="H7BFt8TT2uLQwTArXr9d-27" source="H7BFt8TT2uLQwTArXr9d-5" target="H7BFt8TT2uLQwTArXr9d-1">
          <mxGeometry relative="1" as="geometry">
            <mxPoint x="290" y="420" as="sourcePoint" />
            <mxPoint x="450" y="420" as="targetPoint" />
          </mxGeometry>
        </mxCell>
        <mxCell id="H7BFt8TT2uLQwTArXr9d-15" value="" style="endArrow=none;html=1;rounded=0;exitX=0;exitY=1;exitDx=0;exitDy=0;entryX=1;entryY=0;entryDx=0;entryDy=0;" edge="1" parent="H7BFt8TT2uLQwTArXr9d-27" source="H7BFt8TT2uLQwTArXr9d-6" target="H7BFt8TT2uLQwTArXr9d-1">
          <mxGeometry relative="1" as="geometry">
            <mxPoint x="290" y="410" as="sourcePoint" />
            <mxPoint x="450" y="410" as="targetPoint" />
          </mxGeometry>
        </mxCell>
        <mxCell id="H7BFt8TT2uLQwTArXr9d-16" value="" style="endArrow=none;html=1;rounded=0;exitX=0;exitY=0.5;exitDx=0;exitDy=0;entryX=1;entryY=0.25;entryDx=0;entryDy=0;" edge="1" parent="H7BFt8TT2uLQwTArXr9d-27" source="H7BFt8TT2uLQwTArXr9d-7" target="H7BFt8TT2uLQwTArXr9d-1">
          <mxGeometry relative="1" as="geometry">
            <mxPoint x="210" y="300" as="sourcePoint" />
            <mxPoint x="370" y="300" as="targetPoint" />
          </mxGeometry>
        </mxCell>
        <mxCell id="H7BFt8TT2uLQwTArXr9d-17" value="" style="endArrow=none;html=1;rounded=0;exitX=0;exitY=0.5;exitDx=0;exitDy=0;entryX=1;entryY=0.5;entryDx=0;entryDy=0;" edge="1" parent="H7BFt8TT2uLQwTArXr9d-27" source="H7BFt8TT2uLQwTArXr9d-8" target="H7BFt8TT2uLQwTArXr9d-1">
          <mxGeometry relative="1" as="geometry">
            <mxPoint x="260" y="340" as="sourcePoint" />
            <mxPoint x="420" y="340" as="targetPoint" />
          </mxGeometry>
        </mxCell>
        <mxCell id="H7BFt8TT2uLQwTArXr9d-18" value="" style="endArrow=none;html=1;rounded=0;exitX=1;exitY=1;exitDx=0;exitDy=0;entryX=0;entryY=0;entryDx=0;entryDy=0;" edge="1" parent="H7BFt8TT2uLQwTArXr9d-27" source="H7BFt8TT2uLQwTArXr9d-1" target="H7BFt8TT2uLQwTArXr9d-10">
          <mxGeometry relative="1" as="geometry">
            <mxPoint x="260" y="330" as="sourcePoint" />
            <mxPoint x="420" y="330" as="targetPoint" />
          </mxGeometry>
        </mxCell>
        <mxCell id="H7BFt8TT2uLQwTArXr9d-19" value="" style="endArrow=none;html=1;rounded=0;exitX=0.75;exitY=1;exitDx=0;exitDy=0;entryX=0.5;entryY=0;entryDx=0;entryDy=0;" edge="1" parent="H7BFt8TT2uLQwTArXr9d-27" source="H7BFt8TT2uLQwTArXr9d-1" target="H7BFt8TT2uLQwTArXr9d-9">
          <mxGeometry relative="1" as="geometry">
            <mxPoint x="320" y="360" as="sourcePoint" />
            <mxPoint x="480" y="360" as="targetPoint" />
          </mxGeometry>
        </mxCell>
      </root>
    </mxGraphModel>
  </diagram>
</mxfile>
